<?xml version="1.0" encoding="UTF-8"?>
<svg xmlns="http://www.w3.org/2000/svg" width="1600" height="900" viewBox="0 0 1600 900" role="img" aria-label="left geometric reference"><defs><linearGradient id="sky" x1="0" y1="0" x2="0" y2="1"><stop offset="0" stop-color="#dbe7ec"/><stop offset="1" stop-color="#f7eee0"/></linearGradient></defs><rect width="100%" height="100%" fill="url(#sky)"/><polygon points="440.71,558.72 538.36,527.56 381.38,527.56 225.13,558.72" fill="#c9c7bf" stroke="#969790" stroke-width="1" stroke-linejoin="round"/><polygon points="1969.43,625.55 1256.45,514.89 307.03,514.89 -462.98,625.55" fill="#cbd9bf" stroke="#8ca082" stroke-width="1" stroke-linejoin="round"/><polygon points="1493.09,550.40 1462.43,545.69 1117.97,545.69 1132.68,550.40" fill="#c6c6c0" stroke="#969790" stroke-width="1" stroke-linejoin="round"/><polygon points="1663.65,576.71 1506.16,552.52 1138.96,552.52 1214.55,576.71" fill="#b8b8b2" stroke="#969790" stroke-width="1" stroke-linejoin="round"/><polyline points="1969.54,570.36 1256.47,493.35 307.01,493.35 -463.11,570.36 1969.54,570.36" fill="none" stroke="#50754f" stroke-width="18" stroke-linejoin="round" opacity=".9"/><line x1="362.84" y1="595.07" x2="362.68" y2="404.29" stroke="#66533e" stroke-width="8"/><circle cx="362.68" cy="404.29" r="18.53" fill="#6f9064" stroke="#496d4a" stroke-width="2"/><line x1="520.53" y1="519.91" x2="520.48" y2="414.50" stroke="#66533e" stroke-width="8"/><circle cx="520.48" cy="414.50" r="12.00" fill="#6f9064" stroke="#496d4a" stroke-width="2"/><polygon points="1070.49,410.50 529.51,410.50 800.00,256.06" fill="#1a2226" stroke="#11181b" stroke-width="2" stroke-linejoin="round"/><polygon points="1253.65,387.78 1070.49,410.50 800.00,256.06 800.00,230.20" fill="#273136" stroke="#11181b" stroke-width="2" stroke-linejoin="round"/><polygon points="346.35,387.78 800.00,230.20 800.00,256.06 529.51,410.50" fill="#20292d" stroke="#11181b" stroke-width="2" stroke-linejoin="round"/><polygon points="1253.65,387.78 800.00,230.20 346.35,387.78" fill="#222b2f" stroke="#11181b" stroke-width="2" stroke-linejoin="round"/><polygon points="385.45,575.33 1214.55,575.33 1214.70,388.76 385.30,388.76" fill="#e4ddcf" stroke="#60635f" stroke-width="2" stroke-linejoin="round"/><polygon points="813.82,575.37 882.94,575.37 882.96,430.22 813.83,430.22" fill="#252b2e" stroke="#111719" stroke-width="4"/><polygon points="544.25,520.08 641.02,520.08 641.00,437.14 544.21,437.14" fill="#86aab8" stroke="#111719" stroke-width="4"/><polyline points="1253.65,387.78 1070.49,410.50 529.51,410.50 346.35,387.78 1253.65,387.78" fill="none" stroke="#111719" stroke-width="7" stroke-linejoin="round"/><polyline points="1253.65,387.78 1253.49,577.64" fill="none" stroke="#111719" stroke-width="7"/><polyline points="1070.49,410.50 1070.43,523.71" fill="none" stroke="#111719" stroke-width="7"/><polyline points="529.51,410.50 529.57,523.71" fill="none" stroke="#111719" stroke-width="7"/><polyline points="346.35,387.78 346.51,577.64" fill="none" stroke="#111719" stroke-width="7"/><rect x="24" y="24" width="620" height="55" rx="7" fill="#fff" opacity=".9"/><text x="42" y="48" font-family="Arial,sans-serif" font-size="14" font-weight="700" fill="#182224">HOUSE A · GEOMETRIC PREVIEW · CAM_LEFT</text><text x="42" y="68" font-family="Arial,sans-serif" font-size="12" fill="#4e5d58">CAM_LEFT · west/left centred, looking east · 48° FOV · 16:9</text><rect x="24" y="842" width="730" height="34" rx="5" fill="#132025" opacity=".86"/><text x="42" y="864" font-family="Arial,sans-serif" font-size="12" font-weight="700" fill="#fff">APPROVED CANONICAL GEOMETRY · NOT A PHOTOREALISTIC ASSET</text></svg>
