<?xml version="1.0" encoding="UTF-8"?>
<svg xmlns="http://www.w3.org/2000/svg" width="1120" height="850" viewBox="0 0 1120 850" role="img" aria-labelledby="title description">
<title id="title">House A dimensioned floor plan</title><desc id="description">Deterministic technical drawing derived from House A canonical geometry JSON.</desc>
<style>text{font-family:Arial,sans-serif}.title{font-size:28px;font-weight:700;fill:#172020}.subtitle{font-size:15px;fill:#53635d}.label{font-size:13px;fill:#172020}.small{font-size:11px;fill:#53635d}.dim{font-size:12px;fill:#53635d}.tablehead{font-size:12px;font-weight:700;fill:#fff}.cell{font-size:12px;fill:#172020}</style>
<rect width="100%" height="100%" fill="#fbfcfa"/><defs><marker id="arrow" viewBox="0 0 6 6" refX="3" refY="3" markerWidth="6" markerHeight="6" orient="auto-start-reverse"><path d="M0,0 L6,3 L0,6 z" fill="#53635d"/></marker></defs><text class="title" x="50" y="46">01 · DIMENSIONED FLOOR PLAN</text><text class="subtitle" x="50" y="72">Coordinate system: origin C01 at front-west. Footprint 16.4 m × 12 m · dwelling layout 155.04 m² + garage 41.76 m².</text><line x1="50" y1="92" x2="1070" y2="92" stroke="#dfe6e2"/><rect x="50" y="108" width="1020" height="32" rx="4" fill="#e9f3e9" stroke="#9ebfa0"/><text x="64" y="129" font-size="12" font-weight="700" fill="#2f6736">APPROVED CURRENT SOURCE OF TRUTH · future changes begin in this canonical model, never in a derived image.</text><rect x="110" y="165" width="656" height="480" fill="#fff" stroke="#172020" stroke-width="3"/><polygon points="110,645 342,645 342,357 110,357" fill="#d8dce0" stroke="#172020" stroke-width="1.4"/><text x="226" y="501" text-anchor="middle" font-size="13" font-weight="700" fill="#172020">Garage</text><polygon points="342,645 430,645 430,505 342,505" fill="#d9e8e6" stroke="#172020" stroke-width="1.4"/><text x="386" y="575" text-anchor="middle" font-size="13" font-weight="700" fill="#172020">Bryggers</text><polygon points="430,645 510,645 510,525 430,525" fill="#f6ead7" stroke="#172020" stroke-width="1.4"/><text x="470" y="585" text-anchor="middle" font-size="13" font-weight="700" fill="#172020">Entré</text><polygon points="342,505 430,505 430,405 342,405" fill="#e9dfd0" stroke="#172020" stroke-width="1.4"/><text x="386" y="455" text-anchor="middle" font-size="13" font-weight="700" fill="#172020">Bad</text><polygon points="510,645 638,645 638,505 510,505" fill="#dfe8f0" stroke="#172020" stroke-width="1.4"/><text x="574" y="575" text-anchor="middle" font-size="13" font-weight="700" fill="#172020">Værelse 1</text><polygon points="638,645 766,645 766,505 638,505" fill="#dfe8f0" stroke="#172020" stroke-width="1.4"/><text x="702" y="575" text-anchor="middle" font-size="13" font-weight="700" fill="#172020">Værelse 2</text><polygon points="110,357 282,357 282,165 110,165" fill="#dfe8f0" stroke="#172020" stroke-width="1.4"/><text x="196" y="261" text-anchor="middle" font-size="13" font-weight="700" fill="#172020">Soveværelse</text><polygon points="282,385 574,385 574,165 282,165" fill="#e7efd8" stroke="#172020" stroke-width="1.4"/><text x="428" y="275" text-anchor="middle" font-size="13" font-weight="700" fill="#172020">Køkken / alrum</text><polygon points="574,385 766,385 766,165 574,165" fill="#f5e7d6" stroke="#172020" stroke-width="1.4"/><text x="670" y="275" text-anchor="middle" font-size="13" font-weight="700" fill="#172020">Stue</text><polygon points="342,405 430,405 430,525 510,525 510,505 766,505 766,385 430,385 430,357 342,357" fill="#f2f0e8" stroke="#172020" stroke-width="1.4"/><text x="495.6" y="435.4" text-anchor="middle" font-size="13" font-weight="700" fill="#172020">Fordeling / gang</text><line x1="126" y1="645" x2="326" y2="645" stroke="#a14d21" stroke-width="6"/><line x1="448" y1="645" x2="492" y2="645" stroke="#a14d21" stroke-width="6"/><line x1="534" y1="645" x2="606" y2="645" stroke="#256b87" stroke-width="6"/><line x1="662" y1="645" x2="734" y2="645" stroke="#256b87" stroke-width="6"/><line x1="150" y1="165" x2="222" y2="165" stroke="#256b87" stroke-width="6"/><line x1="302" y1="165" x2="430" y2="165" stroke="#a14d21" stroke-width="6"/><line x1="450" y1="165" x2="522" y2="165" stroke="#256b87" stroke-width="6"/><line x1="594" y1="165" x2="714" y2="165" stroke="#a14d21" stroke-width="6"/><line x1="110" y1="453" x2="110" y2="413" stroke="#a14d21" stroke-width="6"/><line x1="110" y1="313" x2="110" y2="257" stroke="#256b87" stroke-width="6"/><line x1="766" y1="593" x2="766" y2="545" stroke="#256b87" stroke-width="6"/><line x1="766" y1="313" x2="766" y2="233" stroke="#256b87" stroke-width="6"/><line x1="110" y1="680" x2="766" y2="680" stroke="#53635d" stroke-width="1" marker-start="url(#arrow)" marker-end="url(#arrow)"/><text class="dim" x="438" y="673" text-anchor="middle">16.4 m overall</text><line x1="110" y1="680" x2="110" y2="680" stroke="#53635d" stroke-width="1" marker-start="url(#arrow)" marker-end="url(#arrow)"/><text class="dim" x="101" y="680" text-anchor="middle" transform="rotate(-90 101 680)"></text><line x1="75" y1="165" x2="110" y2="165" stroke="#53635d"/><line x1="75" y1="645" x2="110" y2="645" stroke="#53635d"/><line x1="75" y1="165" x2="75" y2="165" stroke="#53635d" stroke-width="1" marker-start="url(#arrow)" marker-end="url(#arrow)"/><text class="dim" x="75" y="158" text-anchor="middle"></text><line x1="75" y1="165" x2="75" y2="645" stroke="#53635d" stroke-width="1" marker-start="url(#arrow)" marker-end="url(#arrow)"/><text class="dim" x="66" y="405" text-anchor="middle" transform="rotate(-90 66 405)">12.0 m overall</text><rect x="750" y="165" width="320" height="225" rx="8" fill="#f0f4f1" stroke="#dfe6e2"/><text class="label" x="770" y="192" font-weight="700">KEY</text><text class="small" x="770" y="218">Blue = window / glazed opening</text><text class="small" x="770" y="240">Brown = external door</text><text class="small" x="770" y="272">C01–C04 = immutable footprint corners</text><text class="small" x="770" y="294">Garage = GARAGE_01 only</text><text class="small" x="770" y="326">Room dimensions are approved</text><text class="small" x="770" y="348">canonical design data.</text><text class="small" x="110" y="760">FRONT / SOUTH ↓</text><text class="small" x="110" y="780">External dimensions shown; wall thicknesses and internal door swings are deliberately out of scope for this canonical reference.</text>
</svg>
